<svg width="33" height="32" viewBox="0 0 33 32" fill="none" xmlns="http://www.w3.org/2000/svg">
<ellipse cx="16.5" cy="29" rx="13" ry="3" fill="url(#paint0_linear_245_9974)"/>
<path d="M18.7258 4.02132C18.8409 4.01238 18.9561 4.00528 19.0716 4C18.6619 4.26505 18.2701 4.56931 17.9006 4.91013C17.0433 5.70096 16.3228 6.67354 15.7808 7.77317C15.2387 8.87285 14.8858 10.0781 14.7434 11.3203L14.7023 11.7073L11.0042 11.2983C10.6299 11.2569 10.3619 10.8874 10.4531 10.4823C10.6366 9.66825 10.9615 8.88465 11.4184 8.15851C12.0124 7.21425 12.8179 6.38567 13.7887 5.72005C14.7596 5.05444 15.8769 4.56484 17.0767 4.27921C17.6166 4.15068 18.1685 4.06458 18.7258 4.02132Z" fill="url(#paint1_linear_245_9974)"/>
<path fill-rule="evenodd" clip-rule="evenodd" d="M18.7587 12.156L16.7937 11.9387L16.8324 11.5742C16.938 10.6594 17.1984 9.76932 17.5999 8.95473C18.0023 8.13837 18.5385 7.41386 19.1786 6.82339C19.6034 6.4315 20.0683 6.10394 20.561 5.8483C20.9792 6.20171 21.3543 6.61808 21.6764 7.08748C22.1635 7.79751 22.5202 8.61545 22.7267 9.4946C22.9331 10.3737 22.9854 11.2979 22.8802 12.2146L22.8385 12.6072L20.8502 12.3873L19.8511 21.2034H22.7083C24.2793 21.2034 25.7607 22.0191 26.5693 23.3907L28.0091 25.8331H28.7819C29.3628 25.8331 29.8337 26.3181 29.8337 26.9164C29.8337 27.5147 29.3628 27.9997 28.7819 27.9997H27.4361C27.4242 27.9999 27.4124 27.9999 27.4005 27.9997H18.161C18.1511 27.9999 18.1412 27.9999 18.1313 27.9997H7.65269C7.63734 28.0001 7.62196 28.0001 7.60657 27.9997H4.21872C3.63787 27.9997 3.16699 27.5147 3.16699 26.9164C3.16699 26.3181 3.63787 25.8331 4.21872 25.8331H6.95357L8.40784 22.5439L4.18022 18.446C3.75722 18.0359 3.73701 17.3503 4.13509 16.9146C4.53316 16.4789 5.19877 16.4581 5.62177 16.8682L6.68268 17.8965H12.1314C13.4632 17.8965 14.7411 18.4827 15.5967 19.5193L16.9866 21.2034H17.7334L18.7587 12.156ZM10.3539 23.37H17.4879L17.2087 25.8331H9.26488L10.3539 23.37ZM25.5483 25.8331H19.3265L19.6056 23.37H22.7083C23.5857 23.37 24.3651 23.8261 24.7713 24.5152L25.5483 25.8331ZM14.2258 21.2034H10.0943L8.91785 20.0631H12.1314C12.8722 20.0631 13.5547 20.3903 13.994 20.9226L14.2258 21.2034Z" fill="url(#paint2_linear_245_9974)"/>
<path d="M24.93 12.8385L24.9693 12.468C25.1109 11.2278 25.0399 9.97578 24.7599 8.78364C24.4796 7.58951 23.9953 6.47979 23.3353 5.51788C23.0458 5.09597 22.7251 4.70622 22.3771 4.35239C22.5166 4.38925 22.6552 4.42884 22.7928 4.47113C23.3257 4.63499 23.8435 4.83939 24.3397 5.08252C25.4425 5.62283 26.4175 6.34384 27.209 7.20437C28.0005 8.06491 28.593 9.04812 28.9528 10.0979C29.2294 10.9051 29.3642 11.7396 29.354 12.5728C29.3489 12.9874 29.002 13.2889 28.6277 13.2475L24.93 12.8385Z" fill="url(#paint3_linear_245_9974)"/>
<defs>
<linearGradient id="paint0_linear_245_9974" x1="16.5" y1="26" x2="16.5" y2="32" gradientUnits="userSpaceOnUse">
<stop stop-color="#EAF5FE"/>
<stop offset="1" stop-color="#DCE5EC"/>
</linearGradient>
<linearGradient id="paint1_linear_245_9974" x1="16.5003" y1="4" x2="16.5003" y2="28" gradientUnits="userSpaceOnUse">
<stop offset="0.119261" stop-color="#99E0FA"/>
<stop offset="0.692881" stop-color="#76BBF8"/>
</linearGradient>
<linearGradient id="paint2_linear_245_9974" x1="16.5003" y1="4" x2="16.5003" y2="28" gradientUnits="userSpaceOnUse">
<stop offset="0.119261" stop-color="#99E0FA"/>
<stop offset="0.692881" stop-color="#76BBF8"/>
</linearGradient>
<linearGradient id="paint3_linear_245_9974" x1="16.5003" y1="4" x2="16.5003" y2="28" gradientUnits="userSpaceOnUse">
<stop offset="0.119261" stop-color="#99E0FA"/>
<stop offset="0.692881" stop-color="#76BBF8"/>
</linearGradient>
</defs>
</svg>
