<svg width="33" height="32" viewBox="0 0 33 32" fill="none" xmlns="http://www.w3.org/2000/svg">
<ellipse cx="17.2998" cy="28.791" rx="13" ry="3" fill="url(#paint0_linear_245_9994)"/>
<path fill-rule="evenodd" clip-rule="evenodd" d="M30.0205 12.1895V25.525C28.3896 25.1229 26.7148 24.9256 25.0351 24.9377C21.6713 24.9377 18.6423 25.6755 16.8843 26.8532V25.3251C17.5501 24.1688 19.874 23.0029 23.0515 23.0029C24.4516 22.9865 25.8419 23.2407 27.1458 23.7511C27.2473 23.7966 27.3587 23.8157 27.4696 23.8065C27.5805 23.7973 27.6872 23.7601 27.7799 23.6985C27.8725 23.6369 27.9481 23.5528 27.9994 23.4541C28.0508 23.3554 28.0763 23.2453 28.0736 23.1341V11.7758C28.7308 11.8723 29.3812 12.0106 30.0208 12.1898L30.0205 12.1895ZM9.54901 23.0026C8.14858 22.9864 6.75819 23.2409 5.45413 23.7517C5.3526 23.7969 5.24129 23.8158 5.13052 23.8065C5.01975 23.7972 4.91313 23.7601 4.82056 23.6985C4.72799 23.637 4.65247 23.5531 4.60103 23.4545C4.54959 23.356 4.52388 23.2461 4.52631 23.1349V11.7755C3.86907 11.8722 3.21867 12.0107 2.5791 12.1903V25.5253C4.21022 25.1229 5.88515 24.9255 7.56511 24.9377C10.835 24.9377 13.7903 25.6345 15.5665 26.7549V25.0949C14.6428 23.8522 12.2383 23.0026 9.54901 23.0026ZM9.54901 8.30199C8.28986 8.29218 7.03802 8.49412 5.84582 8.89935V22.2115C7.04735 21.8536 8.29534 21.676 9.54901 21.6846C11.9543 21.6846 14.1419 22.3019 15.566 23.3094L15.5665 22.9157C15.5665 22.8669 15.5723 22.8186 15.5839 22.7713V10.4179C14.6722 9.16077 12.2545 8.30112 9.54901 8.30112V8.30199ZM26.7555 22.2118V8.89877C25.5634 8.49339 24.3115 8.29136 23.0523 8.30112C20.223 8.30112 17.7079 9.24107 16.9028 10.5926V23.405C18.3211 22.3403 20.5719 21.684 23.0526 21.684C24.3063 21.6759 25.5539 21.8536 26.7555 22.2112V22.2118Z" fill="url(#paint1_linear_245_9994)"/>
<defs>
<linearGradient id="paint0_linear_245_9994" x1="17.2998" y1="25.791" x2="17.2998" y2="31.791" gradientUnits="userSpaceOnUse">
<stop stop-color="#EAFEFE"/>
<stop offset="1" stop-color="#DCECEC"/>
</linearGradient>
<linearGradient id="paint1_linear_245_9994" x1="16.3" y1="8.30078" x2="16.3" y2="26.8532" gradientUnits="userSpaceOnUse">
<stop offset="0.119261" stop-color="#99E0FA"/>
<stop offset="0.692881" stop-color="#76BBF8"/>
</linearGradient>
</defs>
</svg>
