<svg width="33" height="32" viewBox="0 0 33 32" fill="none" xmlns="http://www.w3.org/2000/svg">
<ellipse cx="16.0996" cy="28.7207" rx="13" ry="3" fill="url(#paint0_linear_245_10001)"/>
<path d="M30.4649 26.1396C30.5966 26.1394 30.9296 25.7762 30.8897 25.9785L30.8994 27.377C30.9021 27.569 30.8468 27.7575 30.7412 27.918C30.6357 28.0783 30.4849 28.2038 30.3076 28.2773L28.9766 28.835C28.7785 28.9163 28.5593 28.9307 28.3525 28.875C28.1457 28.8192 27.9624 28.6964 27.832 28.5264L27.0156 27.4404C27.3506 27.3657 27.6772 27.2563 27.9893 27.1133L30.4649 26.1396ZM2.90919 25.9785C4.10704 26.5352 5.33746 27.0196 6.59278 27.4307L5.97169 28.248C5.84088 28.4174 5.65783 28.539 5.45118 28.5947C5.24437 28.6504 5.02445 28.6366 4.82618 28.5557L3.4961 27.998C3.31892 27.9253 3.16783 27.801 3.06153 27.6416C2.95525 27.4823 2.8986 27.295 2.89942 27.1035L2.90919 25.9785ZM23.8604 25.2148L23.6699 26.4082C23.6517 26.5236 23.5925 26.6289 23.5039 26.7051C23.4153 26.7813 23.3024 26.8235 23.1856 26.8242H10.4863C10.3694 26.8236 10.2567 26.7812 10.168 26.7051C10.0793 26.6289 10.0202 26.5237 10.002 26.4082L9.81153 25.2148H23.8604ZM12.3262 5.02246C12.8007 6.60646 15.2282 7.87511 16.3467 8.16211C16.3477 9.32548 16.3457 23.5133 16.3467 24.2363C15.8637 24.2318 10.2367 24.2428 9.59571 24.2363C9.52422 24.2349 9.45346 24.2188 9.38868 24.1885C9.324 24.1582 9.26661 24.1144 9.21974 24.0605C9.12478 23.9401 8.52486 23.234 8.44239 23.126C8.36974 23.038 8.32919 22.9276 8.32911 22.8135V17.1123C8.32911 17.0481 8.31663 16.9841 8.292 16.9248C8.26737 16.8657 8.23096 16.8118 8.18556 16.7666C8.14017 16.7215 8.08654 16.6854 8.02735 16.6611C7.96798 16.6368 7.90402 16.6247 7.83985 16.625C7.77593 16.6247 7.71248 16.6369 7.65333 16.6611C7.59407 16.6855 7.53956 16.7214 7.49415 16.7666C7.44886 16.8117 7.41327 16.8658 7.38868 16.9248C7.36408 16.984 7.35059 17.0482 7.35059 17.1123V22.8135C7.31259 23.388 7.77865 23.864 8.11915 24.2715L7.26759 26.1836C7.21644 26.2989 7.12272 26.39 7.00587 26.4375C6.88907 26.4849 6.75862 26.4854 6.64161 26.4385C6.64161 26.4385 3.56946 25.2305 3.56446 25.2305C3.48123 25.1973 3.40877 25.1416 3.3545 25.0703C3.30018 24.9988 3.26651 24.9135 3.25684 24.8242C3.07987 23.9045 3.11145 22.9566 3.34962 22.0508C3.34962 22.0508 7.52592 8.62888 7.81642 7.69238C8.6351 6.1921 11.0488 5.33244 12.3262 5.02246ZM21.419 5.04199C22.6678 5.33296 24.7885 6.16289 25.7432 7.47266C26.2038 8.56252 30.3062 21.9973 30.3223 22.0498C30.5084 22.6608 30.5712 23.3029 30.5078 23.9385L30.415 24.8232C30.4055 24.9125 30.3716 24.9978 30.3174 25.0693C30.2631 25.1409 30.1898 25.1962 30.1065 25.2295L27.0303 26.4385C26.9132 26.4843 26.7825 26.4829 26.666 26.4355C26.5497 26.3882 26.4562 26.298 26.4043 26.1836L25.5527 24.2715C25.8154 23.9987 26.0394 23.6905 26.2178 23.3564C26.3698 23.0654 26.3407 18.6044 26.3262 17.1094C26.3249 16.9802 26.2727 16.8564 26.1807 16.7656C26.0886 16.6748 25.9633 16.6243 25.834 16.625C25.7698 16.6247 25.7059 16.6368 25.6465 16.6611C25.5868 16.6856 25.5321 16.7221 25.4863 16.7676C25.4407 16.813 25.4046 16.8673 25.3799 16.9268C25.3552 16.9862 25.3428 17.0499 25.3428 17.1143V22.8135C25.3428 22.9277 25.3023 23.0388 25.2295 23.127C25.146 23.2144 24.5558 23.9528 24.4522 24.0605C24.3976 24.122 24.3292 24.1696 24.2529 24.2002C24.1766 24.2307 24.0937 24.2432 24.0117 24.2363H17.3252C17.3252 24.1652 17.3202 8.92732 17.3252 8.16211C18.4608 7.89896 20.9506 6.65657 21.419 5.04199ZM12.3369 15.5391C12.2154 15.4995 12.0833 15.5088 11.9688 15.5654C11.8541 15.6222 11.7658 15.722 11.7236 15.8428L10.2168 20.4893C10.1766 20.6126 10.1874 20.7476 10.2461 20.8633C10.3049 20.9787 10.4071 21.0663 10.5303 21.1064C10.6536 21.1466 10.7877 21.1359 10.9033 21.0771C11.019 21.0184 11.1062 20.9163 11.1465 20.793L12.6533 16.1465C12.6905 16.0241 12.6782 15.8918 12.6191 15.7783C12.5601 15.6648 12.4586 15.5788 12.3369 15.5391ZM21.7022 15.5713C21.5883 15.5162 21.4572 15.5076 21.3369 15.5469C21.2166 15.5862 21.116 15.6705 21.0567 15.7822C20.9973 15.894 20.9838 16.0248 21.0186 16.1465L22.5254 20.793C22.5545 20.8776 22.6053 20.9532 22.6738 21.0107C22.7424 21.0683 22.8257 21.106 22.9141 21.1201C23.0026 21.1341 23.0937 21.1234 23.1768 21.0898C23.2597 21.0563 23.3319 21.0011 23.3858 20.9297C23.4422 20.8307 23.4717 20.7185 23.4717 20.6045C23.4717 20.4906 23.4422 20.3783 23.3858 20.2793L21.9473 15.8428C21.9036 15.7241 21.8159 15.6265 21.7022 15.5713ZM20.4795 4.74805C20.2099 5.36183 19.7619 5.88011 19.1934 6.23535C18.8026 6.49817 18.3866 6.72101 17.9512 6.90039C18.5573 5.85106 19.0478 4.73912 19.4141 3.58398L20.4795 4.74805ZM18.5381 3.08008C18.1386 4.4134 17.5646 5.68815 16.8311 6.87109C16.4672 6.27382 16.1276 5.66197 15.8135 5.03711C15.502 4.40249 15.2303 3.74883 15.001 3.08008H18.5381ZM14.1699 3.67676C14.5776 4.77979 15.0837 5.84385 15.6816 6.85645C15.2706 6.67667 14.8788 6.45557 14.5127 6.19629H14.5117C13.9512 5.82814 13.5115 5.30272 13.249 4.68555L14.1699 3.67676Z" fill="url(#paint1_linear_245_10001)"/>
<defs>
<linearGradient id="paint0_linear_245_10001" x1="16.0996" y1="25.7207" x2="16.0996" y2="31.7207" gradientUnits="userSpaceOnUse">
<stop stop-color="#FEEDEA"/>
<stop offset="1" stop-color="#ECDEDC"/>
</linearGradient>
<linearGradient id="paint1_linear_245_10001" x1="16.8995" y1="3.08008" x2="16.8995" y2="28.9084" gradientUnits="userSpaceOnUse">
<stop offset="0.338097" stop-color="#F6978A"/>
<stop offset="0.922388" stop-color="#FF6F56"/>
</linearGradient>
</defs>
</svg>
