<svg width="33" height="32" viewBox="0 0 33 32" fill="none" xmlns="http://www.w3.org/2000/svg">
<ellipse cx="16.0996" cy="28.7207" rx="13" ry="3" fill="url(#paint0_linear_245_9968)"/>
<path d="M14.6695 2.10574C15.1635 1.85881 15.7642 2.0591 16.0111 2.55311L16.1818 2.89455C16.7133 3.95791 16.6345 5.2246 15.9752 6.21383L15.9223 6.29313C15.661 6.68526 15.6297 7.18747 15.8404 7.60903L16.0111 7.95048C16.2581 8.44448 16.0578 9.04513 15.5638 9.29207C15.0697 9.539 14.4691 9.33871 14.2222 8.8447L14.0515 8.50325C13.52 7.4399 13.5988 6.1732 14.2581 5.18398L14.3109 5.10467C14.5723 4.71254 14.6036 4.21034 14.3928 3.78878L14.2222 3.44733C13.9752 2.95332 14.1755 2.35267 14.6695 2.10574Z" fill="url(#paint1_linear_245_9968)"/>
<path d="M19.2945 2.87679C19.7885 2.62986 20.3892 2.83015 20.6361 3.32416L20.8068 3.66561C21.3383 4.72896 21.2595 5.99565 20.6002 6.98487L20.5473 7.06418C20.286 7.45631 20.2547 7.95852 20.4654 8.38008L20.6361 8.72153C20.8831 9.21554 20.6828 9.81619 20.1887 10.0631C19.6947 10.3101 19.0941 10.1098 18.8472 9.61575L18.6765 9.27431C18.145 8.21096 18.2238 6.94426 18.8831 5.95504L18.9359 5.87573C19.1973 5.4836 19.2286 4.98139 19.0178 4.55983L18.8472 4.21838C18.6002 3.72438 18.8005 3.12373 19.2945 2.87679Z" fill="url(#paint2_linear_245_9968)"/>
<path d="M10.2152 3.21824C10.7092 2.97131 11.3099 3.1716 11.5568 3.66561C12.0883 4.72896 12.0095 5.99566 11.3502 6.98489L11.2973 7.0642C11.036 7.45633 11.0047 7.95852 11.2154 8.38008L11.3861 8.72153C11.6331 9.21554 11.4328 9.81619 10.9388 10.0631C10.4447 10.3101 9.84409 10.1098 9.59716 9.61575L9.42649 9.27431C8.89496 8.21095 8.97379 6.94425 9.63309 5.95502L9.68595 5.87571C9.94729 5.48358 9.97856 4.98139 9.76784 4.55983C9.5209 4.06582 9.7212 3.46517 10.2152 3.21824Z" fill="url(#paint3_linear_245_9968)"/>
<path fill-rule="evenodd" clip-rule="evenodd" d="M4.18647 13.6628C4.35196 12.3656 5.50584 11.5613 6.67799 11.5613H24.143C25.3152 11.5613 26.469 12.3656 26.6345 13.6628C26.6435 13.7332 26.652 13.8038 26.66 13.8746C28.8844 13.8964 30.7336 15.6583 30.7336 17.8934C30.7336 18.6672 30.4624 19.2738 30.2182 19.8199L30.2026 19.8547C29.0571 22.418 26.6601 24.1703 24.6883 25.2575C23.6852 25.8106 22.7511 26.2138 22.0675 26.4792C21.725 26.6121 21.4435 26.7112 21.2452 26.7777C21.1743 26.8015 21.114 26.8211 21.0653 26.8367C20.3515 27.2778 19.54 27.4402 18.7859 27.4402H12.0704C11.2459 27.4402 10.3535 27.2519 9.58874 26.7273C6.24811 24.4358 4.06641 20.265 4.06641 15.5621C4.06641 14.9175 4.10732 14.2833 4.18647 13.6628ZM28.3767 19.0387C27.6709 20.618 26.2843 21.8884 24.8066 22.8553C25.9933 20.8482 26.6983 18.448 26.7518 15.8783C27.8839 15.9447 28.7336 16.8485 28.7336 17.8934C28.7336 18.1975 28.6434 18.4418 28.3767 19.0387Z" fill="url(#paint4_linear_245_9968)"/>
<defs>
<linearGradient id="paint0_linear_245_9968" x1="16.0996" y1="25.7207" x2="16.0996" y2="31.7207" gradientUnits="userSpaceOnUse">
<stop stop-color="#FEEDEA"/>
<stop offset="1" stop-color="#ECDEDC"/>
</linearGradient>
<linearGradient id="paint1_linear_245_9968" x1="17.4" y1="2" x2="17.4" y2="27.4402" gradientUnits="userSpaceOnUse">
<stop offset="0.338097" stop-color="#F6D68A"/>
<stop offset="0.922388" stop-color="#EE9A8B"/>
</linearGradient>
<linearGradient id="paint2_linear_245_9968" x1="17.4" y1="2" x2="17.4" y2="27.4402" gradientUnits="userSpaceOnUse">
<stop offset="0.338097" stop-color="#F6D68A"/>
<stop offset="0.922388" stop-color="#EE9A8B"/>
</linearGradient>
<linearGradient id="paint3_linear_245_9968" x1="17.4" y1="2" x2="17.4" y2="27.4402" gradientUnits="userSpaceOnUse">
<stop offset="0.338097" stop-color="#F6D68A"/>
<stop offset="0.922388" stop-color="#EE9A8B"/>
</linearGradient>
<linearGradient id="paint4_linear_245_9968" x1="17.4" y1="2" x2="17.4" y2="27.4402" gradientUnits="userSpaceOnUse">
<stop offset="0.338097" stop-color="#F6D68A"/>
<stop offset="0.922388" stop-color="#EE9A8B"/>
</linearGradient>
</defs>
</svg>
