<svg width="33" height="32" viewBox="0 0 33 32" fill="none" xmlns="http://www.w3.org/2000/svg">
<ellipse cx="16.0996" cy="29" rx="13" ry="3" fill="url(#paint0_linear_245_9979)"/>
<path fill-rule="evenodd" clip-rule="evenodd" d="M12.2548 8.97499V8.44383C12.2548 6.66846 6.7357 6.66846 6.7357 8.44383V8.88055C8.71466 7.76641 10.2762 7.92841 12.2548 8.97499ZM25.4635 8.88055V8.44383C25.4635 6.66846 19.9444 6.66846 19.9444 8.44383V8.97499C21.9231 7.92847 23.4846 7.76641 25.4635 8.88055ZM12.2765 9.73747C14.4846 10.9856 17.7146 10.9856 19.9227 9.73747C21.9034 8.61801 23.3587 8.31108 25.5317 9.68874C28.0104 11.2602 29.9447 17.4483 29.5478 21.6275C29.0787 26.5673 24.7651 27.2727 21.7273 23.9897C20.1593 22.2952 18.4401 21.3791 16.0996 21.3549C13.7592 21.3792 12.0399 22.2952 10.4719 23.9897C7.43414 27.2727 3.12056 26.5673 2.65146 21.6275C2.25452 17.4482 4.18887 11.2602 6.66755 9.68874C8.84055 8.31108 10.2959 8.61801 12.2765 9.73747ZM10.468 15.3829V13.3864H8.47133V15.3829H6.4747V17.3796H8.47133V19.3762H10.468V17.3796H12.4645V15.3829H10.468ZM22.4165 13.0733C21.8545 13.0733 21.3989 13.529 21.3989 14.091C21.3989 14.653 21.8545 15.1087 22.4165 15.1087C22.9785 15.1087 23.4342 14.653 23.4342 14.091C23.4342 13.529 22.9785 13.0733 22.4165 13.0733ZM21.1439 16.3812C21.1439 15.8192 20.6883 15.3636 20.1263 15.3636C19.5643 15.3636 19.1086 15.8192 19.1086 16.3812C19.1086 16.9432 19.5643 17.3989 20.1263 17.3989C20.6883 17.3989 21.1439 16.9432 21.1439 16.3812ZM22.4165 17.6538C21.8545 17.6538 21.3989 18.1094 21.3989 18.6715C21.3989 19.2335 21.8545 19.6891 22.4165 19.6891C22.9785 19.6891 23.4342 19.2335 23.4342 18.6715C23.4342 18.1094 22.9785 17.6538 22.4165 17.6538ZM25.7244 16.3812C25.7244 15.8192 25.2688 15.3636 24.7067 15.3636C24.1447 15.3636 23.6891 15.8192 23.6891 16.3812C23.6891 16.9432 24.1447 17.3989 24.7067 17.3989C25.2688 17.3989 25.7244 16.9432 25.7244 16.3812Z" fill="url(#paint1_linear_245_9979)"/>
<defs>
<linearGradient id="paint0_linear_245_9979" x1="16.0996" y1="26" x2="16.0996" y2="32" gradientUnits="userSpaceOnUse">
<stop stop-color="#FEEDEA"/>
<stop offset="1" stop-color="#ECDEDC"/>
</linearGradient>
<linearGradient id="paint1_linear_245_9979" x1="16.0996" y1="7.1123" x2="16.0996" y2="25.9996" gradientUnits="userSpaceOnUse">
<stop offset="0.338097" stop-color="#FFCE58"/>
<stop offset="0.922388" stop-color="#FF8B07"/>
</linearGradient>
</defs>
</svg>
