<svg width="33" height="32" viewBox="0 0 33 32" fill="none" xmlns="http://www.w3.org/2000/svg">
<ellipse cx="16.7002" cy="29" rx="13" ry="3" fill="url(#paint0_linear_245_9987)"/>
<path fill-rule="evenodd" clip-rule="evenodd" d="M4.81836 11.6876C4.81836 8.1635 7.7441 5.30664 11.3532 5.30664C13.4119 5.30664 15.2483 6.23622 16.4461 7.68896C16.5749 7.84526 16.8248 7.84526 16.9537 7.68896C18.1515 6.23622 19.9878 5.30664 22.0465 5.30664C25.6556 5.30664 28.5814 8.1635 28.5814 11.6876C28.5814 17.0768 18.358 25.4454 16.8777 26.629C16.7703 26.7148 16.6295 26.7148 16.5221 26.629C15.0417 25.4454 4.81836 17.0768 4.81836 11.6876ZM14.2938 15.6716L14.704 14.6014L15.7335 19.0777C15.964 20.08 17.3716 20.1378 17.681 19.1546L18.8412 15.4679L19.2461 15.9555C19.4376 16.186 19.7221 16.3202 20.0229 16.3202H22.0465C22.5387 16.3202 22.9377 15.9212 22.9377 15.429C22.9377 14.9369 22.5387 14.5379 22.0465 14.5379H20.3856L19.3068 13.2389C18.7942 12.6218 17.806 12.8206 17.5666 13.5812L16.8337 15.91L15.8734 11.7342C15.6502 10.7639 14.3038 10.666 13.9462 11.599L12.8197 14.5379H11.3532C10.861 14.5379 10.4621 14.9369 10.4621 15.429C10.4621 15.9212 10.861 16.3202 11.3532 16.3202H13.3509C13.7706 16.3202 14.1446 16.0609 14.2938 15.6716Z" fill="url(#paint1_linear_245_9987)"/>
<path fill-rule="evenodd" clip-rule="evenodd" d="M14.2937 15.6745L14.7039 14.6043L15.7333 19.0806C15.9639 20.0829 17.3714 20.1407 17.6809 19.1575L18.8411 15.4709L19.246 15.9584C19.4374 16.1889 19.7219 16.3231 20.0228 16.3231H22.0464C22.5385 16.3231 22.9375 15.9241 22.9375 15.432C22.9375 14.9398 22.5385 14.5408 22.0464 14.5408H20.3854L19.3066 13.2418C18.7941 12.6247 17.8058 12.8235 17.5665 13.5841L16.8336 15.9129L15.8732 11.7371C15.6501 10.7668 14.3036 10.669 13.946 11.6019L12.8195 14.5408H11.353C10.8609 14.5408 10.4619 14.9398 10.4619 15.432C10.4619 15.9241 10.8609 16.3231 11.353 16.3231H13.3507C13.7704 16.3231 14.1445 16.0638 14.2937 15.6745Z" fill="white"/>
<defs>
<linearGradient id="paint0_linear_245_9987" x1="16.7002" y1="26" x2="16.7002" y2="32" gradientUnits="userSpaceOnUse">
<stop stop-color="#FEEDEA"/>
<stop offset="1" stop-color="#ECDEDC"/>
</linearGradient>
<linearGradient id="paint1_linear_245_9987" x1="16.6999" y1="5.30664" x2="16.6999" y2="26.6934" gradientUnits="userSpaceOnUse">
<stop offset="0.338097" stop-color="#F6978A"/>
<stop offset="0.922388" stop-color="#FF6F56"/>
</linearGradient>
</defs>
</svg>
