<svg width="25" height="24" viewBox="0 0 25 24" fill="none" xmlns="http://www.w3.org/2000/svg">
<path fill-rule="evenodd" clip-rule="evenodd" d="M21.167 10.1503V17.9668C21.167 20.1943 19.3761 22 17.167 22H7.16699C4.95785 22 3.16699 20.1943 3.16699 17.9668V10.1503C3.16699 8.93937 3.70664 7.7925 4.63685 7.02652L9.63685 2.90935C11.1093 1.69689 13.2247 1.69688 14.6971 2.90935L19.6971 7.02652C20.6273 7.7925 21.167 8.93937 21.167 10.1503ZM10.167 17.25C9.75278 17.25 9.41699 17.5858 9.41699 18C9.41699 18.4142 9.75278 18.75 10.167 18.75H14.167C14.5812 18.75 14.917 18.4142 14.917 18C14.917 17.5858 14.5812 17.25 14.167 17.25H10.167Z" fill="#DB3D42"/>
</svg>
