<svg width="33" height="32" viewBox="0 0 33 32" fill="none" xmlns="http://www.w3.org/2000/svg">
<ellipse cx="16.5" cy="29" rx="13" ry="3" fill="url(#paint0_linear_245_10010)"/>
<path d="M19.5258 20.0479C22.6156 17.778 24.1175 15.2546 24.1175 12.3333C24.1175 7.73828 20.8465 4 16.8258 4C12.8051 4 9.53418 7.73828 9.53418 12.3333C9.53418 15.2546 11.0361 17.778 14.1258 20.0479C15.1518 20.8017 14.9808 21.1646 14.4143 22.3669C14.0799 23.0766 13.7008 23.881 13.7008 24.8333C13.7008 27.5687 15.2729 29 16.8258 29C18.3788 29 19.9508 27.5687 19.9508 24.8333C19.9508 23.881 19.5718 23.0766 19.2374 22.3669C18.6709 21.1646 18.4999 20.8017 19.5258 20.0479Z" fill="url(#paint1_linear_245_10010)"/>
<path d="M16.8265 18.584C19.703 18.584 22.0348 15.7858 22.0348 12.334C22.0348 8.8822 19.703 6.08398 16.8265 6.08398C13.95 6.08398 11.6182 8.8822 11.6182 12.334C11.6182 15.7858 13.95 18.584 16.8265 18.584Z" fill="white"/>
<path d="M17.4148 6.12305L11.6312 11.9063C11.6231 12.0483 11.6187 12.1906 11.6182 12.3329C11.6167 13.1084 11.7383 13.8791 11.9786 14.6164L19.5714 7.02344C18.9411 6.54423 18.1987 6.23427 17.4148 6.12305Z" fill="url(#paint2_linear_245_10010)"/>
<path d="M11.7119 11.1632L16.7911 6.08398C14.2637 6.10404 12.1663 8.28437 11.7119 11.1632Z" fill="url(#paint3_linear_245_10010)"/>
<path d="M20.7767 8.26367L12.7773 16.263C13.566 17.4312 14.698 18.2521 15.9898 18.5026L22.0315 12.4609C22.0323 12.4185 22.0342 12.3764 22.0342 12.3337C22.0483 10.8793 21.6088 9.45664 20.7767 8.26367Z" fill="url(#paint4_linear_245_10010)"/>
<path d="M16.7266 18.5812C16.7598 18.582 16.7927 18.5837 16.826 18.5837C19.4158 18.5837 21.5618 16.315 21.9642 13.3438L16.7266 18.5812Z" fill="url(#paint5_linear_245_10010)"/>
<path d="M16.8258 19.1042C13.6667 19.1042 11.0967 16.0668 11.0967 12.3333C11.0967 8.59987 13.6667 5.5625 16.8258 5.5625C19.985 5.5625 22.555 8.59987 22.555 12.3333C22.555 16.0668 19.985 19.1042 16.8258 19.1042ZM16.8258 6.60417C14.2411 6.60417 12.1383 9.17422 12.1383 12.3333C12.1383 15.4924 14.2411 18.0625 16.8258 18.0625C19.4106 18.0625 21.5133 15.4924 21.5133 12.3333C21.5133 9.17422 19.4106 6.60417 16.8258 6.60417Z" fill="#FFE7ED"/>
<path d="M9.01367 17.0208C8.59941 17.0204 8.20224 16.8556 7.90931 16.5627C7.61638 16.2698 7.45162 15.8726 7.45117 15.4583C7.45117 15.3202 7.3963 15.1877 7.29862 15.09C7.20095 14.9924 7.06847 14.9375 6.93034 14.9375C6.79221 14.9375 6.65973 14.9924 6.56205 15.09C6.46438 15.1877 6.40951 15.3202 6.40951 15.4583C6.40906 15.8726 6.24429 16.2698 5.95136 16.5627C5.65844 16.8556 5.26127 17.0204 4.84701 17.0208C4.70887 17.0208 4.5764 17.0757 4.47872 17.1734C4.38105 17.2711 4.32617 17.4035 4.32617 17.5417C4.32617 17.6798 4.38105 17.8123 4.47872 17.91C4.5764 18.0076 4.70887 18.0625 4.84701 18.0625C5.26127 18.0629 5.65844 18.2277 5.95136 18.5206C6.24429 18.8136 6.40906 19.2107 6.40951 19.625C6.40951 19.7631 6.46438 19.8956 6.56205 19.9933C6.65973 20.091 6.79221 20.1458 6.93034 20.1458C7.06847 20.1458 7.20095 20.091 7.29862 19.9933C7.3963 19.8956 7.45117 19.7631 7.45117 19.625C7.45162 19.2107 7.61638 18.8136 7.90931 18.5206C8.20224 18.2277 8.59941 18.0629 9.01367 18.0625C9.15181 18.0625 9.28428 18.0076 9.38196 17.91C9.47963 17.8123 9.53451 17.6798 9.53451 17.5417C9.53451 17.4035 9.47963 17.2711 9.38196 17.1734C9.28428 17.0757 9.15181 17.0208 9.01367 17.0208ZM26.722 20.6667C26.3077 20.6662 25.9106 20.5015 25.6176 20.2085C25.3247 19.9156 25.16 19.5184 25.1595 19.1042C25.1595 18.966 25.1046 18.8336 25.007 18.7359C24.9093 18.6382 24.7768 18.5833 24.6387 18.5833C24.5005 18.5833 24.3681 18.6382 24.2704 18.7359C24.1727 18.8336 24.1178 18.966 24.1178 19.1042C24.1174 19.5184 23.9526 19.9156 23.6597 20.2085C23.3668 20.5015 22.9696 20.6662 22.5553 20.6667C22.4172 20.6667 22.2847 20.7215 22.1871 20.8192C22.0894 20.9169 22.0345 21.0494 22.0345 21.1875C22.0345 21.3256 22.0894 21.4581 22.1871 21.5558C22.2847 21.6535 22.4172 21.7083 22.5553 21.7083C22.9696 21.7088 23.3668 21.8735 23.6597 22.1665C23.9526 22.4594 24.1174 22.8566 24.1178 23.2708C24.1178 23.409 24.1727 23.5414 24.2704 23.6391C24.3681 23.7368 24.5005 23.7917 24.6387 23.7917C24.7768 23.7917 24.9093 23.7368 25.007 23.6391C25.1046 23.5414 25.1595 23.409 25.1595 23.2708C25.16 22.8566 25.3247 22.4594 25.6176 22.1665C25.9106 21.8735 26.3077 21.7088 26.722 21.7083C26.8601 21.7083 26.9926 21.6535 27.0903 21.5558C27.188 21.4581 27.2428 21.3256 27.2428 21.1875C27.2428 21.0494 27.188 20.9169 27.0903 20.8192C26.9926 20.7215 26.8601 20.6667 26.722 20.6667ZM28.1543 6.08333C27.74 6.08289 27.3429 5.91812 27.0499 5.62519C26.757 5.33226 26.5922 4.9351 26.5918 4.52083C26.5918 4.3827 26.5369 4.25022 26.4393 4.15255C26.3416 4.05487 26.2091 4 26.071 4C25.9328 4 25.8004 4.05487 25.7027 4.15255C25.605 4.25022 25.5501 4.3827 25.5501 4.52083C25.5497 4.9351 25.3849 5.33226 25.092 5.62519C24.7991 5.91812 24.4019 6.08289 23.9876 6.08333C23.8495 6.08333 23.717 6.13821 23.6193 6.23588C23.5217 6.33356 23.4668 6.46603 23.4668 6.60417C23.4668 6.7423 23.5217 6.87478 23.6193 6.97245C23.717 7.07013 23.8495 7.125 23.9876 7.125C24.4019 7.12545 24.7991 7.29021 25.092 7.58314C25.3849 7.87607 25.5497 8.27324 25.5501 8.6875C25.5501 8.82563 25.605 8.95811 25.7027 9.05579C25.8004 9.15346 25.9328 9.20833 26.071 9.20833C26.2091 9.20833 26.3416 9.15346 26.4393 9.05579C26.5369 8.95811 26.5918 8.82563 26.5918 8.6875C26.5922 8.27324 26.757 7.87607 27.0499 7.58314C27.3429 7.29021 27.74 7.12545 28.1543 7.125C28.2924 7.125 28.4249 7.07013 28.5226 6.97245C28.6203 6.87478 28.6751 6.7423 28.6751 6.60417C28.6751 6.46603 28.6203 6.33356 28.5226 6.23588C28.4249 6.13821 28.2924 6.08333 28.1543 6.08333Z" fill="#FFB6CA"/>
<defs>
<linearGradient id="paint0_linear_245_10010" x1="16.5" y1="26" x2="16.5" y2="32" gradientUnits="userSpaceOnUse">
<stop stop-color="#EAF5FE"/>
<stop offset="1" stop-color="#DCE5EC"/>
</linearGradient>
<linearGradient id="paint1_linear_245_10010" x1="16.8258" y1="4" x2="16.8258" y2="29" gradientUnits="userSpaceOnUse">
<stop stop-color="#FF9DB8"/>
<stop offset="1" stop-color="#FF5D8A"/>
</linearGradient>
<linearGradient id="paint2_linear_245_10010" x1="11.2143" y1="13.8521" x2="18.8072" y2="6.25925" gradientUnits="userSpaceOnUse">
<stop offset="0.051" stop-color="#FF85A6"/>
<stop offset="0.943" stop-color="#E8D9F1"/>
</linearGradient>
<linearGradient id="paint3_linear_245_10010" x1="11.2139" y1="13.8521" x2="18.8068" y2="6.25924" gradientUnits="userSpaceOnUse">
<stop offset="0.051" stop-color="#FF85A6"/>
<stop offset="0.943" stop-color="#E8D9F1"/>
</linearGradient>
<linearGradient id="paint4_linear_245_10010" x1="11.2135" y1="13.8526" x2="18.8065" y2="6.25976" gradientUnits="userSpaceOnUse">
<stop offset="0.051" stop-color="#FF85A6"/>
<stop offset="0.943" stop-color="#E8D9F1"/>
</linearGradient>
<linearGradient id="paint5_linear_245_10010" x1="11.2138" y1="13.8529" x2="18.8068" y2="6.26003" gradientUnits="userSpaceOnUse">
<stop offset="0.051" stop-color="#FF85A6"/>
<stop offset="0.943" stop-color="#E8D9F1"/>
</linearGradient>
</defs>
</svg>
