<svg width="33" height="32" viewBox="0 0 33 32" fill="none" xmlns="http://www.w3.org/2000/svg">
<ellipse cx="16.0996" cy="29" rx="13" ry="3" fill="url(#paint0_linear_245_10024)"/>
<path d="M23.564 9.63095V7.09923H23.3354V3.85846C23.3354 2.75501 22.4423 1.86035 21.3416 1.86035H10.6302C9.52878 1.86035 8.63574 2.75501 8.63574 3.85846V25.6622C8.63574 26.7657 9.52878 27.6604 10.6302 27.6604H21.3409C22.4423 27.6604 23.3346 26.7657 23.3346 25.6622V11.7878H23.5633V10.2922H23.3346V9.63022H23.5633L23.564 9.63095Z" stroke="#263238" stroke-width="0.516" stroke-linejoin="round"/>
<path d="M20.862 2.18457H11.013C9.78959 2.18457 8.79785 3.17139 8.79785 4.38869V25.1314C8.79785 26.3487 9.78959 27.3355 11.013 27.3355H20.862C22.0854 27.3355 23.0771 26.3487 23.0771 25.1314V4.38869C23.0771 3.17139 22.0854 2.18457 20.862 2.18457Z" fill="#263238" stroke="#263238" stroke-width="1.032" stroke-linejoin="round"/>
<path d="M20.5929 2.3474H16.632L16.6284 2.36186C16.511 2.78269 16.2413 3.05602 15.9427 3.05602H15.7709C15.4722 3.05602 15.2018 2.78269 15.0851 2.36186L15.0815 2.3474H11.1199C10.0166 2.3474 9.12207 3.23968 9.12207 4.3402V24.2074C9.12207 25.308 10.0166 26.1995 11.1199 26.1995H20.5929C21.6962 26.1995 22.59 25.3072 22.59 24.2074V4.33948C22.59 3.23896 21.6955 2.34668 20.5929 2.34668V2.3474Z" fill="white"/>
<path d="M20.5923 2.34668H16.6316L16.628 2.36045C16.5106 2.76113 16.2409 3.02137 15.9423 3.02137H15.7705C15.4719 3.02137 15.2015 2.76113 15.0848 2.36045L15.0812 2.34668H11.1198C10.0165 2.34668 9.12207 3.19624 9.12207 4.24407V4.45611H22.59V4.24407C22.59 3.19624 21.6955 2.34668 20.593 2.34668H20.5923Z" fill="url(#paint1_linear_245_10024)"/>
<path d="M15.9377 2.67136C16.0273 2.67136 16.0999 2.56239 16.0999 2.42797C16.0999 2.29354 16.0273 2.18457 15.9377 2.18457C15.848 2.18457 15.7754 2.29354 15.7754 2.42797C15.7754 2.56239 15.848 2.67136 15.9377 2.67136Z" fill="#707070"/>
<path d="M9.53424 9.71671V9.03286H13.1272V9.71671H11.7353V13.5361H10.9261V9.71671H9.53424ZM17.6442 11.2845C17.6442 11.7697 17.5533 12.1853 17.3715 12.5313C17.1912 12.8757 16.945 13.1396 16.6327 13.3228C16.322 13.5061 15.9694 13.5977 15.5751 13.5977C15.1807 13.5977 14.8275 13.5061 14.5152 13.3228C14.2044 13.1381 13.9582 12.8735 13.7764 12.5291C13.5961 12.1831 13.5059 11.7682 13.5059 11.2845C13.5059 10.7993 13.5961 10.3844 13.7764 10.0399C13.9582 9.69398 14.2044 9.42939 14.5152 9.24615C14.8275 9.06291 15.1807 8.97129 15.5751 8.97129C15.9694 8.97129 16.322 9.06291 16.6327 9.24615C16.945 9.42939 17.1912 9.69398 17.3715 10.0399C17.5533 10.3844 17.6442 10.7993 17.6442 11.2845ZM16.824 11.2845C16.824 10.9429 16.7705 10.6549 16.6635 10.4203C16.558 10.1843 16.4114 10.0062 16.2237 9.88602C16.0361 9.76435 15.8199 9.70351 15.5751 9.70351C15.3303 9.70351 15.114 9.76435 14.9264 9.88602C14.7388 10.0062 14.5914 10.1843 14.4844 10.4203C14.3789 10.6549 14.3261 10.9429 14.3261 11.2845C14.3261 11.6261 14.3789 11.9148 14.4844 12.1508C14.5914 12.3854 14.7388 12.5635 14.9264 12.6852C15.114 12.8054 15.3303 12.8655 15.5751 12.8655C15.8199 12.8655 16.0361 12.8054 16.2237 12.6852C16.4114 12.5635 16.558 12.3854 16.6635 12.1508C16.7705 11.9148 16.824 11.6261 16.824 11.2845ZM18.4155 13.5361V9.03286H20.1042C20.4501 9.03286 20.7404 9.09736 20.9749 9.22636C21.2109 9.35536 21.389 9.53273 21.5093 9.75848C21.6309 9.98277 21.6918 10.2378 21.6918 10.5237C21.6918 10.8125 21.6309 11.069 21.5093 11.2933C21.3876 11.5176 21.208 11.6942 20.9705 11.8232C20.7331 11.9508 20.4406 12.0145 20.0932 12.0145H18.974V11.3439H19.9832C20.1855 11.3439 20.3512 11.3087 20.4802 11.2383C20.6092 11.168 20.7045 11.0712 20.766 10.9481C20.8291 10.8249 20.8606 10.6835 20.8606 10.5237C20.8606 10.3639 20.8291 10.2232 20.766 10.1015C20.7045 9.97984 20.6085 9.88529 20.478 9.81785C20.349 9.74896 20.1826 9.71451 19.9788 9.71451H19.2312V13.5361H18.4155ZM14.6419 16.0329H15.4577V18.9749C15.4577 19.2974 15.3815 19.5811 15.229 19.8259C15.078 20.0707 14.8655 20.262 14.5914 20.3998C14.3172 20.5361 13.9969 20.6043 13.6304 20.6043C13.2625 20.6043 12.9415 20.5361 12.6673 20.3998C12.3932 20.262 12.1807 20.0707 12.0297 19.8259C11.8787 19.5811 11.8032 19.2974 11.8032 18.9749V16.0329H12.619V18.9068C12.619 19.0944 12.66 19.2615 12.7421 19.4081C12.8257 19.5547 12.9429 19.6698 13.0939 19.7533C13.2449 19.8354 13.4238 19.8765 13.6304 19.8765C13.8371 19.8765 14.016 19.8354 14.167 19.7533C14.3194 19.6698 14.4367 19.5547 14.5188 19.4081C14.6009 19.2615 14.6419 19.0944 14.6419 18.9068V16.0329ZM16.3444 20.5361V16.0329H18.0331C18.3791 16.0329 18.6693 16.0974 18.9039 16.2264C19.1399 16.3554 19.318 16.5327 19.4382 16.7585C19.5599 16.9828 19.6207 17.2378 19.6207 17.5237C19.6207 17.8125 19.5599 18.069 19.4382 18.2933C19.3165 18.5176 19.137 18.6942 18.8995 18.8232C18.662 18.9508 18.3696 19.0145 18.0221 19.0145H16.9029V18.3439H17.9122C18.1145 18.3439 18.2801 18.3087 18.4091 18.2383C18.5381 18.168 18.6334 18.0712 18.695 17.9481C18.758 17.8249 18.7895 17.6835 18.7895 17.5237C18.7895 17.3639 18.758 17.2232 18.695 17.1015C18.6334 16.9798 18.5374 16.8853 18.4069 16.8179C18.2779 16.749 18.1116 16.7145 17.9078 16.7145H17.1602V20.5361H16.3444Z" fill="url(#paint2_linear_245_10024)"/>
<defs>
<linearGradient id="paint0_linear_245_10024" x1="16.0996" y1="26" x2="16.0996" y2="32" gradientUnits="userSpaceOnUse">
<stop stop-color="#EAF5FE"/>
<stop offset="1" stop-color="#DCE5EC"/>
</linearGradient>
<linearGradient id="paint1_linear_245_10024" x1="15.856" y1="2.34668" x2="15.856" y2="4.45611" gradientUnits="userSpaceOnUse">
<stop offset="0.338097" stop-color="#F6978A"/>
<stop offset="0.922388" stop-color="#FF6F56"/>
</linearGradient>
<linearGradient id="paint2_linear_245_10024" x1="15.6221" y1="7.53613" x2="15.6221" y2="22.5361" gradientUnits="userSpaceOnUse">
<stop offset="0.199478" stop-color="#FF7D6C"/>
<stop offset="0.84353" stop-color="#FF2D07"/>
</linearGradient>
</defs>
</svg>
