<svg width="25" height="24" viewBox="0 0 25 24" fill="none" xmlns="http://www.w3.org/2000/svg">
<path d="M2.5 17C2.5 19.2091 4.29086 21 6.5 21H18.5C20.7091 21 22.5 19.2091 22.5 17V16C22.5 15.4477 22.04 15.0163 21.5181 14.8356C20.3435 14.4289 19.5 13.313 19.5 12C19.5 10.687 20.3435 9.57105 21.5181 9.16437C22.04 8.98368 22.5 8.55228 22.5 8V7C22.5 4.79086 20.7091 3 18.5 3H6.5C4.29086 3 2.5 4.79086 2.5 7V8C2.5 8.55228 2.96 8.98368 3.48189 9.16437C4.65653 9.57105 5.5 10.687 5.5 12C5.5 13.313 4.65653 14.4289 3.48189 14.8356C2.96 15.0163 2.5 15.4477 2.5 16V17Z" stroke="#A3A3A3" stroke-width="1.5" stroke-linecap="round" stroke-linejoin="round"/>
<path d="M10.5 9C10.5 9.55228 10.0523 10 9.5 10C8.94772 10 8.5 9.55228 8.5 9C8.5 8.44772 8.94772 8 9.5 8C10.0523 8 10.5 8.44772 10.5 9Z" fill="#A3A3A3"/>
<path d="M16.5 15C16.5 15.5523 16.0523 16 15.5 16C14.9477 16 14.5 15.5523 14.5 15C14.5 14.4477 14.9477 14 15.5 14C16.0523 14 16.5 14.4477 16.5 15Z" fill="#A3A3A3"/>
<path d="M15.5 9L9.5 15" stroke="#A3A3A3" stroke-width="1.5" stroke-linecap="round"/>
</svg>
